<?xml version="1.0" encoding="utf-8"?>
<!-- Generator: Adobe Illustrator 22.0.1, SVG Export Plug-In . SVG Version: 6.00 Build 0)  -->
<svg version="1.1" id="Ebene_1" xmlns="http://www.w3.org/2000/svg" xmlns:xlink="http://www.w3.org/1999/xlink" x="0px" y="0px"
	 viewBox="0 0 55 54" style="enable-background:new 0 0 55 54;" xml:space="preserve">
<g>
	<g>
		<path d="M31.4,8.5c-0.7-0.7-1.7-1.1-2.8-1.1c-2.2,0-3.9,1.7-3.9,3.9v11.4v1.9v7.8v1.9c0,2.6-2.1,4.7-4.7,4.7s-4.7-2.1-4.7-4.7
			v-7.7c0-2.1-1.7-3.9-3.9-3.9c-2.2,0-3.9,1.7-3.9,3.9v7.7c0,6.9,5.6,12.5,12.5,12.5c6.9,0,12.5-5.6,12.5-12.5V11.2
			C32.6,10.2,32.1,9.2,31.4,8.5z"/>
		<path d="M39.7,42.8c0-2.1,1.7-3.9,3.9-3.9c2.2,0,3.9,1.7,3.9,3.9c0,2.1-1.7,3.9-3.9,3.9C41.4,46.6,39.7,44.9,39.7,42.8z"/>
		<path d="M7.5,11.2c0-2.1,1.7-3.9,3.9-3.9c2.2,0,3.9,1.7,3.9,3.9c0,2.1-1.7,3.9-3.9,3.9C9.2,15.1,7.5,13.4,7.5,11.2z"/>
		<path d="M43.6,7.4c-2.1,0-3.9,1.7-3.9,3.9v16.4c0,2.1,1.7,3.9,3.9,3.9c2.1,0,3.9-1.7,3.9-3.9V11.2C47.5,9.1,45.7,7.4,43.6,7.4z"/>
	</g>
</g>
</svg>
