<?xml version="1.0" encoding="utf-8"?>
<!-- Generator: Adobe Illustrator 22.0.1, SVG Export Plug-In . SVG Version: 6.00 Build 0)  -->
<svg version="1.1" xmlns="http://www.w3.org/2000/svg" xmlns:xlink="http://www.w3.org/1999/xlink" x="0px" y="0px"
	 viewBox="0 0 218.7 54.6" style="enable-background:new 0 0 218.7 54.6;" xml:space="preserve">
<style type="text/css">
	.st0{fill:#FFFFFF;}
</style>
<g id="Ebene_1">
</g>
<g id="Ebene_2">
	<g>
		<g>
			<path class="st0" d="M33,2.1c-1-1-2.3-1.6-3.8-1.6c-3,0-5.4,2.4-5.4,5.3v15.6V24v10.7v2.6c0,3.6-2.9,6.5-6.5,6.5
				s-6.5-2.9-6.5-6.5V26.7c0-3-2.4-5.3-5.4-5.3c-3,0-5.4,2.4-5.4,5.3v10.6c0,9.5,7.7,17.1,17.2,17.1c9.5,0,17.2-7.7,17.2-17.1V5.8
				C34.5,4.4,33.9,3,33,2.1z"/>
			<path class="st0" d="M44.3,49.2c0-3,2.4-5.3,5.4-5.3c3,0,5.4,2.4,5.4,5.3c0,3-2.4,5.3-5.4,5.3C46.7,54.5,44.3,52.1,44.3,49.2z"/>
			<path class="st0" d="M0,5.8c0-3,2.4-5.3,5.4-5.3c3,0,5.4,2.4,5.4,5.3c0,3-2.4,5.3-5.4,5.3C2.4,11.2,0,8.8,0,5.8z"/>
			<path class="st0" d="M49.7,0.5c-2.9,0-5.3,2.4-5.3,5.3v22.5c0,2.9,2.4,5.3,5.3,5.3c2.9,0,5.3-2.4,5.3-5.3V5.8
				C55,2.9,52.6,0.5,49.7,0.5z"/>
		</g>
	</g>
	<path class="st0" d="M89,50.4l0-10.5h-1.2l-4.3,7.4L79,39.9h-1.2v10.5h1.4v-7.6l3.8,6.3h0.7l3.8-6.4l0,7.7H89z M95.9,49.1v-3.4h5.3
		v-1.3h-5.3v-3.2h5.9v-1.3h-7.4v10.5h7.6v-1.3H95.9z M106.7,50.4h4.4c3.4,0,5.7-2.1,5.7-5.3c0-3.1-2.3-5.3-5.7-5.3h-4.4V50.4z
		 M108.2,49.1v-7.9h2.8c2.6,0,4.3,1.6,4.3,3.9s-1.7,3.9-4.3,3.9H108.2z M121.3,50.4h1.5V39.9h-1.5V50.4z M136,50.4h1.6l-4.8-10.5
		h-1.5l-4.8,10.5h1.5l1.2-2.6h5.6L136,50.4z M129.8,46.6l2.3-5.1l2.3,5.1H129.8z"/>
	<path class="st0" d="M84.2,27.8v-22c0-0.3-0.2-0.6-0.6-0.6h-5.2c-0.3,0-0.5,0.2-0.5,0.6v26.9c0,0.3,0.2,0.5,0.5,0.5h15.8
		c0.3,0,0.5-0.2,0.5-0.5v-4.4c0-0.3-0.2-0.5-0.5-0.5H84.2z M113.2,5.2c-0.3,0-0.5,0.2-0.5,0.6V23c0,3.5-1.6,5.3-4.4,5.3H108
		c-2.8,0-4.4-1.8-4.4-5.3V5.8c0-0.3-0.2-0.6-0.5-0.6h-5.3c-0.3,0-0.5,0.2-0.5,0.6v17c0,7.7,4.9,11,10.6,11h0.6
		c5.7,0,10.6-3.2,10.6-11v-17c0-0.3-0.2-0.6-0.6-0.6H113.2z M123.7,5.2c-0.3,0-0.5,0.2-0.5,0.6v26.9c0,0.3,0.2,0.6,0.5,0.6h9.7
		c6.2,0,11.3-3.8,11.3-12.2v-3.7c0-8.3-5.1-12.1-11.3-12.1L123.7,5.2z M138.4,21.1c0,4.6-1.9,6.7-5.8,6.7h-3.2V10.7h3.2
		c3.9,0,5.8,2.1,5.8,6.7V21.1z M178.9,5.2c-0.3,0-0.5,0.2-0.6,0.4l-3.2,13.1l-1.5,9h-0.3l-1.4-9l-3.2-13.1c-0.1-0.3-0.3-0.4-0.6-0.4
		h-5.9c-0.2,0-0.4,0.2-0.5,0.4l-3.2,13.1l-1.5,9h-0.3l-1.5-9l-3.2-13.1c-0.1-0.3-0.2-0.4-0.5-0.4h-5.3c-0.4,0-0.6,0.3-0.5,0.7
		l6.6,26.9c0.1,0.3,0.3,0.4,0.6,0.4h7.4c0.3,0,0.5-0.1,0.6-0.4l2.4-9.5l1.8-10.1h0.4l1.8,10.1l2.3,9.5c0.1,0.3,0.3,0.4,0.6,0.4h7.4
		c0.3,0,0.4-0.1,0.5-0.4L184.7,6c0.1-0.4-0.2-0.7-0.6-0.7H178.9z M188,5.2c-0.3,0-0.5,0.2-0.5,0.6v26.9c0,0.3,0.2,0.6,0.5,0.6h5.2
		c0.3,0,0.6-0.2,0.6-0.6V5.8c0-0.3-0.2-0.6-0.6-0.6H188z M210,4.7c-6.4,0-12.5,4.4-12.5,12.8V21c0,8.3,5.8,12.7,12.2,12.7h0.6
		c3.1,0,6.6-1.3,7.7-2.2c0.3-0.2,0.5-0.6,0.5-1V19.4c0-0.3-0.2-0.5-0.6-0.5h-5c-0.3,0-0.5,0.2-0.5,0.5V28c-0.5,0.2-1.4,0.4-2,0.4
		h-0.2c-4.2,0-6.3-2.7-6.3-7.3v-3.6c0-4.6,3-7.3,7.1-7.3h0.2c2.1,0,3,0.3,5.4,1.3c0.4,0.1,0.6-0.1,0.6-0.4V6.9
		c0-0.5-0.2-0.7-0.5-0.8c-1-0.5-3.6-1.3-6.2-1.3H210z"/>
</g>
</svg>
