<svg width="55" height="54" viewBox="0 0 55 54" fill="none" xmlns="http://www.w3.org/2000/svg">
<g clip-path="url(#clip0)">
<path d="M32.9135 1.56352C31.931 0.605863 30.5949 0 29.1211 0C26.154 0 23.7567 2.38436 23.7567 5.33551V20.9707V23.5309V34.202V36.8404C23.7567 40.4169 20.8485 43.3095 17.2526 43.3095C13.6567 43.3095 10.7485 40.4169 10.7485 36.8404V26.228C10.7485 23.2769 8.3512 20.8925 5.38407 20.8925C2.39728 20.8925 0 23.2769 0 26.228V36.8404C0 46.3192 7.7224 53.9805 17.2329 53.9805C26.7631 53.9805 34.4659 46.2997 34.4659 36.8404V5.33551C34.4855 3.86971 33.8764 2.52117 32.9135 1.56352Z" fill="white"/>
<path d="M44.2712 48.6646C44.2712 45.7134 46.6685 43.329 49.6357 43.329C52.6028 43.329 55.0001 45.7134 55.0001 48.6646C55.0001 51.6157 52.6028 54.0001 49.6357 54.0001C46.6685 54.0001 44.2712 51.6157 44.2712 48.6646Z" fill="white"/>
<path d="M0 5.33551C0 2.38437 2.39729 0 5.36442 0C8.33156 0 10.7288 2.38437 10.7288 5.33551C10.7288 8.28666 8.33156 10.671 5.36442 10.671C2.39729 10.671 0 8.28666 0 5.33551Z" fill="white"/>
<path d="M49.6355 0C46.6881 0 44.2908 2.38437 44.2908 5.31596V27.8306C44.2908 30.7622 46.6881 33.1466 49.6355 33.1466C52.583 33.1466 54.9803 30.7622 54.9803 27.8306V5.31596C54.9607 2.38437 52.583 0 49.6355 0Z" fill="white"/>
</g>
<defs>
<clipPath id="clip0">
<rect width="55" height="54" fill="white"/>
</clipPath>
</defs>
</svg>
